<svg aria-hidden="true" style="position:absolute;width:0;height:0;overflow:hidden" xmlns="http://www.w3.org/2000/svg"><defs><symbol id="vk" viewBox="0 0 32 32"><path fill="#fff" style="fill:var(--color1, #fff)" d="M28.483 19.677s2.587 2.555 3.227 3.737a.176.176 0 0 1 .029.056c.261.436.325.779.197 1.032-.216.417-.947.627-1.195.644h-4.573c-.319 0-.981-.083-1.787-.64-.616-.429-1.229-1.139-1.823-1.831-.887-1.029-1.653-1.923-2.429-1.923h-.002a.882.882 0 0 0-.292.05l.006-.002c-.587.187-1.333 1.023-1.333 3.252 0 .697-.549 1.093-.935 1.093h-2.095c-.713 0-4.429-.249-7.724-3.723C3.719 17.169.093 8.638.057 8.563c-.225-.552.248-.853.76-.853h4.617c.62 0 .821.373.963.711.163.385.768 1.928 1.76 3.66 1.605 2.82 2.593 3.967 3.381 3.967a.84.84 0 0 0 .423-.112c1.031-.567.839-4.247.791-5.004 0-.147-.001-1.644-.529-2.367-.377-.519-1.021-.72-1.409-.793a1.66 1.66 0 0 1 .608-.517c.705-.352 1.98-.403 3.245-.403h.703c1.373.019 1.728.107 2.227.233 1.005.24 1.025.891.937 3.108a49.678 49.678 0 0 0-.053 2.187c0 .18-.008.38-.008.584-.031 1.137-.071 2.419.733 2.945a.649.649 0 0 0 .346.099h.001c.279 0 1.112 0 3.373-3.88.992-1.713 1.76-3.733 1.813-3.887.044-.084.179-.323.341-.419a.762.762 0 0 1 .36-.09h.019-.001 5.432c.592 0 .993.089 1.072.313.132.363-.025 1.472-2.505 4.827-.417.557-.784 1.04-1.107 1.463-2.247 2.951-2.247 3.1.133 5.34z"/></symbol><symbol id="youtube" viewBox="0 0 32 32"><path fill="#fff" style="fill:var(--color1, #fff)" d="M29.41 9.26a3.51 3.51 0 0 0-2.446-2.464l-.025-.006c-2.18-.591-10.94-.591-10.94-.591s-8.759 0-10.94.591a3.512 3.512 0 0 0-2.464 2.446l-.006.025c-.376 1.956-.59 4.205-.59 6.504l.001.248V16c-.015 2.26.183 4.517.591 6.74a3.515 3.515 0 0 0 2.444 2.464l.025.006c2.181.591 10.94.591 10.94.591s8.759 0 10.94-.591a3.51 3.51 0 0 0 2.464-2.446l.006-.025c.406-2.223.603-4.48.59-6.74l.001-.23c0-2.301-.215-4.553-.627-6.734l.035.225zM13.2 20.201v-8.4L20.47 16l-7.27 4.201z"/></symbol><symbol id="facebook" viewBox="0 0 32 32"><path fill="#fff" style="fill:var(--color1, #fff)" d="M17.862 27.996V17.067h3.687l.548-4.278h-4.234v-2.724c0-1.234.343-2.08 2.116-2.08h2.245V4.17a28.713 28.713 0 0 0-3.167-.169h-.129.007c-3.258 0-5.495 1.99-5.495 5.642v3.14H9.777v4.278h3.67v10.937h4.416z"/></symbol></defs></svg>